HIERARCHY
ROOT pelvis
{
  OFFSET 0 100 0
  CHANNELS 6 Xposition Yposition Zposition Zrotation Xrotation Yrotation
  JOINT pelvis_right_femur
  {
    OFFSET -10.78128 -3.44521 -0.5502486
    CHANNELS 3 Zrotation Xrotation Yrotation
    JOINT right_femur_tibia
    {
      OFFSET -0.8047443 -44.0398 -0.1307829
      CHANNELS 3 Zrotation Xrotation Yrotation
      JOINT right_tibia_foot
      {
        OFFSET 3.006224 -47.83518 -5
        CHANNELS 3 Zrotation Xrotation Yrotation
        End Site
        {
          OFFSET 0 -5 15
        }
      }
    }
  }
  JOINT pelvis_left_femur
  {
    OFFSET 10.78128 -3.44521 -0.5502486
    CHANNELS 3 Zrotation Xrotation Yrotation
    JOINT left_femur_tibia
    {
      OFFSET 0.8047443 -44.0398 -0.1307829
      CHANNELS 3 Zrotation Xrotation Yrotation
      JOINT left_tibia_foot
      {
        OFFSET -4.370144 -48.10324 -4.275266
        CHANNELS 3 Zrotation Xrotation Yrotation
        End Site
        {
          OFFSET 0 -5 15
        }
      }
    }
  }
  JOINT pelvis_spine1
  {
    OFFSET 0 6.468898 -3.129235
    CHANNELS 3 Zrotation Xrotation Yrotation
    JOINT spine1
    {
      OFFSET 0 23.15396 4.99043
      CHANNELS 3 Zrotation Xrotation Yrotation
      JOINT spine2
      {
        OFFSET 0 20.79997 -5.064912
        CHANNELS 3 Zrotation Xrotation Yrotation
        JOINT neck
        {
          OFFSET 0 14.38658 9.616178
          CHANNELS 3 Zrotation Xrotation Yrotation
          End Site
          {
            OFFSET 0 20 0
          }
        }
      }
      JOINT right_manubrium
      {
        OFFSET -5.722621 16.35077 3.967754
        CHANNELS 3 Zrotation Xrotation Yrotation
        JOINT right_clavicle
        {
          OFFSET -13.16364 1.694482 -4.693211
          CHANNELS 3 Zrotation Xrotation Yrotation
          JOINT right_humerus
          {
            OFFSET -28.5034 -0.3100689 -2.792744
            CHANNELS 3 Zrotation Xrotation Yrotation
            JOINT right_radius
            {
              OFFSET -25.15693 0.02248979 -1.271978
              CHANNELS 3 Zrotation Xrotation Yrotation
              End Site
              {
                OFFSET -15 0 0
              }
            }
          }
        }
      }
      JOINT left_manubrium
      {
        OFFSET 5.722621 16.35077 3.967754
        CHANNELS 3 Zrotation Xrotation Yrotation
        JOINT left_clavicle
        {
          OFFSET 13.16364 1.694482 -4.693211
          CHANNELS 3 Zrotation Xrotation Yrotation
          JOINT left_humerus
          {
            OFFSET 29.39168 -1.063119 -2.237045
            CHANNELS 3 Zrotation Xrotation Yrotation
            JOINT left_radius
            {
              OFFSET 24.59957 -0.9528479 0.9047498
              CHANNELS 3 Zrotation Xrotation Yrotation
              End Site
              {
                OFFSET 15 -0 -0
              }
            }
          }
        }
      }
    }
  }
}
MOTION
Frames: 23
Frame Time: 0.0416666666667
-1306.68 103.3018 2138.19 -5.598158 1.151342 -86.6577 8.735717 -13.8007 -2.824472 -0 10.67062 -0 -15.23287 5.345446 0.3234892 -2.703146 4.363309 -4.309804 -0 55.19196 -0 2.625941 -5.113458 12.52722 2.941976 -4.202476 10.93492 2.856668 21.42164 -11.90933 -1.282971 16.75353 1.773127 3.10413 -18.43528 -1.427187 -1.883786 -29.2931 16.03489 95.65033 9.796772 -28.67645 -0 0 22.60605 -16.83927 9.388988 2.710255 1.460512 -35.00842 -15.17866 -88.29246 3.035724 29.61884 0 0 -31.08099 10.30618 7.244447 -1.013876
-1312.381 104.8161 2138.451 -6.310127 0.7187219 -87.5622 8.273281 -8.300973 -2.107401 -0 10.45172 -0 -15.02888 2.214946 -0.4874086 -2.211672 -1.294214 -4.313208 -0 59.521 -0 1.906609 -3.750986 12.91332 2.870006 -4.169097 10.92131 2.873257 21.2926 -11.68979 -1.23177 16.69288 1.530147 2.71934 -18.38529 -1.326832 -1.748256 -29.83367 15.93045 95.07914 10.1602 -27.38164 -0 0 23.74709 -16.97365 10.11272 3.609064 1.206927 -34.09001 -14.7389 -88.87255 3.390567 31.10285 0 0 -28.77283 9.527245 7.234839 0.2789478
-1317.695 106.13 2138.671 -6.918015 0.03355534 -88.36635 7.355012 -2.686277 -1.603408 -0 9.282094 -0 -14.427 -0.8907477 -1.121292 -1.677811 -7.05049 -4.303836 -0 58.88206 -0 1.258945 -3.54686 13.67487 2.794206 -4.167746 10.96458 2.916233 21.15604 -11.4919 -1.178811 16.53424 1.198923 2.244505 -18.33287 -1.251967 -1.615907 -30.55234 15.79617 94.38304 10.49692 -25.92155 -0 0 25.23326 -17.0342 10.93543 4.608137 0.9156813 -33.093 -14.21833 -89.48212 3.766555 32.83774 0 0 -26.42762 8.623816 7.072481 1.824797
-1322.756 106.9753 2138.861 -7.42018 -0.368985 -89.0403 6.706807 2.265737 -1.139385 -0 8.154583 -0 -13.72614 -3.877962 -1.60691 -0.6697648 -12.12165 -3.860965 -0 53.3103 -0 1.007639 -3.663442 14.83018 2.69701 -4.196725 11.04455 2.970764 20.98091 -11.30587 -1.120726 16.29582 0.8054658 1.715798 -18.2638 -1.194314 -1.477695 -31.3943 15.61492 93.54354 10.84594 -24.31323 -0 0 27.00269 -17.02775 11.82363 5.670105 0.6361227 -32.03983 -13.60296 -90.09545 4.170563 34.693 0 0 -24.12127 7.682222 6.780064 3.50547
-1327.703 107.2194 2139.068 -7.701294 -0.259424 -89.64921 6.519376 6.280704 -0.7030403 -0 7.49812 -0 -13.14802 -7.032533 -1.96285 0.8134098 -16.18645 -3.102364 -0 44.2154 -0 1.159318 -3.529523 16.14912 2.564509 -4.248052 11.12509 3.010872 20.73828 -11.10838 -1.05015 16.02474 0.3949145 1.181009 -18.16855 -1.129283 -1.3324 -32.2677 15.37545 92.57678 11.2502 -22.58964 -0 0 28.91321 -16.99379 12.73183 6.754716 0.4178404 -30.95599 -12.89446 -90.68817 4.612994 36.49894 0 0 -21.90655 6.802787 6.440375 5.161798
-1332.658 106.8661 2139.349 -7.658714 0.2226068 -90.26472 6.525737 9.575706 -0.3663709 -0 7.318026 -0 -12.75982 -10.39284 -2.161053 2.356984 -19.21386 -2.498882 -0 33.58801 -0 1.367001 -3.100636 17.27585 2.393108 -4.305676 11.15847 3.000258 20.41001 -10.8611 -0.9546327 15.79428 0.02857275 0.6934529 -18.04832 -1.015072 -1.190097 -33.05268 15.07861 91.54055 11.75069 -20.79457 -0 0 30.75062 -17.00788 13.60831 7.829039 0.3016182 -29.86393 -12.11484 -91.24266 5.09897 38.07394 0 0 -19.79947 6.083379 6.197268 6.608872
-1337.732 106.0257 2139.744 -7.346597 0.7850252 -90.92141 6.368145 12.49161 -0.1681288 -0 7.659461 -0 -12.50848 -13.50087 -2.172142 3.459436 -21.22927 -2.474045 -0 23.36517 -0 1.286962 -2.634532 18.02309 2.192954 -4.347789 11.10205 2.904294 19.99875 -10.52491 -0.8221962 15.68217 -0.2309866 0.3036564 -17.91399 -0.8101432 -1.065986 -33.63016 14.7424 90.52184 12.3716 -18.98614 -0 0 32.28092 -17.15686 14.39915 8.865197 0.3087027 -28.7872 -11.3095 -91.74979 5.615344 39.26859 0 0 -17.78976 5.597552 6.209022 7.67386
-1343.036 104.8848 2140.272 -6.973604 1.164935 -91.61161 5.813985 15.24607 -0.09938677 -0 8.783546 -0 -12.30905 -15.57769 -1.978406 3.770145 -22.21436 -3.211371 -0 15.0966 -0 0.78727 -2.429072 18.43409 1.985693 -4.353715 10.93708 2.7091 19.53327 -10.0857 -0.6510345 15.7399 -0.3409148 0.04854503 -17.78167 -0.4983367 -0.9717139 -33.91817 14.40149 89.61667 13.09958 -17.25287 -0 0 33.31762 -17.49463 15.05106 9.826734 0.433175 -27.76366 -10.54481 -92.20229 6.126943 40.0003 0 0 -15.88389 5.377155 6.572096 8.245818
-1348.676 103.6831 2140.932 -6.794894 1.20989 -92.29193 4.80043 17.83478 -0.1291436 -0 11.11302 -0 -12.13721 -15.81707 -1.570096 3.17666 -22.11246 -4.64046 -0 9.761584 -0 -0.03364517 -2.678942 18.67935 1.797825 -4.311788 10.67712 2.434421 19.06484 -9.573323 -0.4558977 15.97094 -0.2928136 -0.05798416 -17.66923 -0.1030736 -0.9117585 -33.89612 14.09911 88.91375 13.87303 -15.7257 -0 0 33.76755 -18.00785 15.51733 10.65737 0.642934 -26.85494 -9.896925 -92.58497 6.586268 40.26171 0 0 -14.15015 5.407508 7.265219 8.310908
-1354.722 102.6865 2141.696 -6.994548 0.899364 -92.89216 3.414707 19.99576 -0.2266581 -0 15.09437 -0 -12.08684 -13.65391 -0.9530175 1.804748 -20.87456 -6.497563 -0 7.664786 -0 -0.9086049 -3.428552 18.94823 1.653591 -4.223971 10.36222 2.130209 18.65621 -9.05914 -0.2657989 16.32991 -0.1128278 -0.02731845 -17.59437 0.31834 -0.8859575 -33.60506 13.87566 88.48493 14.59234 -14.56754 -0 0 33.63784 -18.61479 15.76763 11.28385 0.8898853 -26.14262 -9.436102 -92.86995 6.947323 40.10397 0 0 -12.73047 5.635791 8.152744 7.950142
-1361.162 102.1461 2142.513 -7.609547 0.3358455 -93.32815 1.869137 21.2286 -0.3790368 -0 20.99389 -0 -12.35104 -9.005456 -0.1457485 -0.03364807 -18.51906 -8.423096 -0 8.406727 -0 -1.509007 -4.583468 19.38241 1.570882 -4.105383 10.04464 1.859502 18.36857 -8.63452 -0.1146269 16.7405 0.1510141 0.1105092 -17.57275 0.6943114 -0.8942762 -33.12717 13.76003 88.38059 15.14502 -13.94131 -0 0 33.01054 -19.19593 15.79482 11.63155 1.123865 -25.71331 -9.214277 -93.0199 7.173267 39.60813 0 0 -11.81318 5.988628 9.040896 7.300961
-1367.854 102.2329 2143.307 -8.511591 -0.2878321 -93.52402 0.4660159 20.92282 -0.5999482 -0 28.60412 -0 -13.111 -2.480341 0.8340299 -1.931186 -15.19206 -10.08496 -0 10.95786 -0 -1.601044 -5.967632 20.02494 1.560756 -3.980034 9.775753 1.678761 18.25102 -8.384649 -0.03089298 17.11963 0.4451171 0.3181549 -17.6155 0.9593899 -0.9398514 -32.55823 13.76684 88.62669 15.43045 -13.97277 -0 0 32.00604 -19.63376 15.61248 11.64211 1.303632 -25.64176 -9.260378 -92.99651 7.236713 38.85961 0 0 -11.58833 6.392992 9.746019 6.506743
-1374.543 102.9615 2144.011 -9.457088 -0.7543353 -93.44346 -0.4937127 18.64115 -0.9097339 -0 36.95079 -0 -14.36845 4.573608 1.931659 -3.504773 -11.19561 -11.29978 -0 13.91495 -0 -1.212084 -7.42304 20.76791 1.628576 -3.875338 9.599108 1.624643 18.33393 -8.369561 -0.03142755 17.39659 0.7222299 0.561154 -17.72637 1.066627 -1.028746 -31.9865 13.89757 89.22035 15.37511 -14.72199 -0 0 30.75562 -19.8411 15.24448 11.28467 1.402104 -25.97776 -9.581034 -92.77078 7.118042 37.93497 0 0 -12.20712 6.793262 10.13923 5.679834
-1380.945 104.1531 2144.594 -10.19907 -0.9220239 -93.11533 -0.8601339 14.45688 -1.300498 -0 44.30299 -0 -15.80932 10.42634 2.952912 -4.520856 -6.940597 -12.08531 -0 15.9869 -0 -0.6706194 -8.908876 21.35156 1.774487 -3.816845 9.548598 1.708818 18.62476 -8.614598 -0.1196287 17.52349 0.9471375 0.8142337 -17.89872 0.991509 -1.166556 -31.48184 14.14232 90.12349 14.94059 -16.1668 -0 0 29.3893 -19.77279 14.71396 10.56026 1.407375 -26.73678 -10.16197 -92.33303 6.806611 36.9009 0 0 -13.74932 7.159334 10.16059 4.887568
-1386.862 105.4905 2145.069 -10.59603 -0.8089844 -92.62987 -0.7267052 9.040919 -1.751721 -0 48.77499 -0 -16.87588 13.74295 3.570306 -4.972699 -2.826948 -12.58331 -0 16.51507 -0 -0.3883379 -10.49796 21.48707 1.99231 -3.822847 9.646461 1.91836 19.10552 -9.107066 -0.2865604 17.48028 1.099043 1.064278 -18.11379 0.7319353 -1.353082 -31.09031 14.48093 91.25859 14.13128 -18.19833 -0 0 28.03038 -19.42746 14.03791 9.503105 1.322302 -27.89211 -10.96798 -91.70094 6.305828 35.81781 0 0 -16.19439 7.485709 9.815034 4.155448
-1392.255 106.641 2145.472 -10.62762 -0.5751596 -92.1013 -0.3587983 3.302549 -2.284441 -0 49.24797 -0 -17.13477 14.22932 3.582406 -5.048006 0.8702834 -12.90551 -0 15.63239 -0 -0.5211121 -12.24411 21.04263 2.267753 -3.898941 9.897636 2.219774 19.73236 -9.797354 -0.5133613 17.27699 1.173456 1.310652 -18.34242 0.3081431 -1.577945 -30.82951 14.88391 92.51435 13.00275 -20.63276 -0 0 26.78462 -18.84561 13.2301 8.180397 1.164177 -29.37025 -11.94296 -90.92191 5.639741 34.73901 0 0 -19.40151 7.785283 9.162347 3.477251
-1397.214 107.363 2145.834 -10.32546 -0.4027394 -91.62406 -0.02178583 -2.111086 -2.950101 -0 45.83034 -0 -16.56822 12.56822 3.118378 -4.998377 4.030746 -13.05312 -0 13.95364 -0 -0.8535465 -14.07874 20.12284 2.57763 -4.034803 10.28186 2.565812 20.43929 -10.60542 -0.7740834 16.95299 1.183341 1.562156 -18.55207 -0.2367206 -1.820795 -30.68525 15.31437 93.76526 11.66415 -23.24105 -0 0 25.72153 -18.1045 12.311 6.688967 0.9642227 -31.05391 -13.01176 -90.066 4.85707 33.70213 0 0 -23.11419 8.08195 8.305632 2.825624
-1401.894 107.5423 2146.171 -9.720016 -0.3912788 -91.25131 0.1436377 -6.99062 -3.762232 -0 39.53159 -0 -15.45188 9.842048 2.487677 -5.013629 6.646099 -12.96285 -0 12.15058 -0 -0.9877315 -15.85033 18.98953 2.89126 -4.206005 10.7492 2.903869 21.1465 -11.43308 -1.038603 16.57085 1.157245 1.830347 -18.71663 -0.837788 -2.056895 -30.61385 15.73126 94.89878 10.26782 -25.78794 -0 0 24.85806 -17.30748 11.3198 5.147319 0.7656956 -32.79501 -14.08456 -89.21083 4.028949 32.71872 0 0 -26.99706 8.404113 7.377877 2.161889
-1406.466 107.1738 2146.483 -8.845079 -0.5429299 -90.99729 0.1350145 -11.40005 -4.66901 -0 31.63504 -0 -14.09966 7.035162 1.940707 -5.177405 8.766892 -12.58568 -0 10.73704 -0 -0.5877458 -17.41089 17.92669 3.174227 -4.380853 11.22493 3.184844 21.77232 -12.18041 -1.276125 16.20445 1.132795 2.121635 -18.82354 -1.415463 -2.264175 -30.55314 16.09408 95.83633 8.984743 -28.06648 -0 0 24.15866 -16.56643 10.32101 3.682528 0.6186325 -34.43566 -15.06472 -88.4256 3.23898 31.77335 0 0 -30.69249 8.778251 6.52348 1.447279
-1411.084 106.3293 2146.767 -7.759904 -0.7999661 -90.8494 0.04114733 -15.44969 -5.576449 -0 23.30758 -0 -12.76556 4.85377 1.595317 -5.485041 10.46731 -11.92342 -0 10.06838 -0 0.4941531 -18.64369 17.1433 3.394279 -4.529021 11.62579 3.372257 22.24759 -12.76417 -1.460223 15.92258 1.146065 2.431831 -18.87428 -1.890683 -2.426958 -30.44127 16.3693 96.5398 7.970427 -29.92111 -0 0 23.5571 -15.97918 9.398554 2.412703 0.568925 -35.83265 -15.8623 -87.76143 2.567567 30.83935 0 0 -33.87777 9.220087 5.87152 0.6585195
-1415.89 105.1348 2147.008 -6.560179 -1.07763 -90.77963 0.001784695 -19.15144 -6.372398 -0 15.52464 -0 -11.65921 3.728449 1.471351 -5.872833 11.82196 -11.03086 -0 10.4168 -0 2.1781 -19.44227 16.71982 3.528614 -4.628439 11.88376 3.450531 22.53004 -13.1346 -1.57494 15.77205 1.21967 2.745377 -18.87933 -2.205496 -2.535534 -30.2382 16.53769 97.0052 7.329492 -31.26121 -0 0 22.99217 -15.60746 8.636501 1.42779 0.6423482 -36.88104 -16.41336 -87.24972 2.075125 29.90696 0 0 -36.31075 9.723603 5.504317 -0.1941582
-1421.001 103.7584 2147.186 -5.378214 -1.278552 -90.75385 0.1884697 -22.35161 -6.936849 -0 9.114847 -0 -10.96553 3.823696 1.53605 -6.236436 12.88504 -10.00472 -0 12.02645 -0 4.140337 -19.69018 16.5712 3.570294 -4.66882 11.96782 3.42857 22.61424 -13.28464 -1.6191 15.76619 1.354567 3.039066 -18.85163 -2.339877 -2.584544 -29.94126 16.59939 97.2512 7.091321 -32.06537 -0 0 22.43961 -15.4645 8.094869 0.7746335 0.8307638 -37.53098 -16.6975 -86.90543 1.789773 29.00796 0 0 -37.8584 10.2536 5.435573 -1.056364
-1426.5 102.4031 2147.278 -4.372046 -1.301326 -90.74301 0.7818571 -24.72741 -7.157586 -0 4.749578 -0 -10.82543 4.999292 1.730551 -6.44393 13.66356 -8.957631 -0 15.12201 -0 5.839829 -19.26516 16.43979 3.530255 -4.651906 11.89212 3.334982 22.53148 -13.24603 -1.605575 15.8843 1.529958 3.287968 -18.80214 -2.314925 -2.572913 -29.58698 16.57339 97.30856 7.208913 -32.37313 -0 0 21.92428 -15.51866 7.794866 0.4533366 1.090921 -37.79093 -16.74198 -86.73171 1.704208 28.22025 0 0 -38.50204 10.74878 5.613115 -1.836491
